<svg xmlns="http://www.w3.org/2000/svg" xmlns:xlink="http://www.w3.org/1999/xlink" width="200px"
  height="200px" viewBox="0 0 100 100" preserveAspectRatio="xMidYMid"
  style="margin-right:-2px;display:block;background-repeat-y:initial;background-repeat-x:initial;animation-play-state:paused">
  <g transform="translate(50 50)"
    style="transform:matrix(1, 0, 0, 1, 50, 50);animation-play-state:paused">
    <g transform="matrix(1,0,0,1,0,0)"
      style="transform:matrix(1, 0, 0, 1, 0, 0);animation-play-state:paused">
      <path
        d="M33.552198139615236 -5.5 L41.552198139615236 -5.5 L41.552198139615236 5.5 L33.552198139615236 5.5 A34 34 0 0 1 27.614074124762606 19.835899531710584 L27.614074124762606 19.835899531710584 L33.270928374254986 25.492753781202964 L25.492753781202964 33.270928374254986 L19.835899531710584 27.614074124762606 A34 34 0 0 1 5.500000000000002 33.552198139615236 L5.500000000000002 33.552198139615236 L5.500000000000003 41.552198139615236 L-5.4999999999999964 41.552198139615236 L-5.499999999999997 33.552198139615236 A34 34 0 0 1 -19.83589953171058 27.61407412476261 L-19.83589953171058 27.61407412476261 L-25.49275378120296 33.27092837425499 L-33.270928374254986 25.492753781202968 L-27.614074124762606 19.835899531710588 A34 34 0 0 1 -33.552198139615236 5.500000000000004 L-33.552198139615236 5.500000000000004 L-41.552198139615236 5.500000000000005 L-41.552198139615236 -5.499999999999995 L-33.552198139615236 -5.499999999999996 A34 34 0 0 1 -27.61407412476261 -19.83589953171058 L-27.61407412476261 -19.83589953171058 L-33.27092837425499 -25.49275378120296 L-25.492753781202968 -33.27092837425498 L-19.835899531710588 -27.614074124762602 A34 34 0 0 1 -5.500000000000006 -33.552198139615236 L-5.500000000000006 -33.552198139615236 L-5.500000000000008 -41.552198139615236 L5.499999999999992 -41.552198139615236 L5.499999999999994 -33.552198139615236 A34 34 0 0 1 19.835899531710577 -27.61407412476261 L19.835899531710577 -27.61407412476261 L25.492753781202957 -33.27092837425499 L33.27092837425498 -25.492753781202975 L27.614074124762602 -19.83589953171059 A34 34 0 0 1 33.552198139615236 -5.500000000000008 M0 -11A11 11 0 1 0 0 11 A11 11 0 1 0 0 -11"
        fill="#f9bc60" style="animation-play-state:paused"></path>
    </g>
  </g>
</svg>