<svg
    fill="#000000"
    height="100%"
    width="100%"
    version="1.1"
    id="Capa_1"
    viewBox="0 0 511 511"
    xml:space="preserve"
    sodipodi:docname="sh-document.svg"
    xmlns:inkscape="http://www.inkscape.org/namespaces/inkscape"
    xmlns:sodipodi="http://sodipodi.sourceforge.net/DTD/sodipodi-0.dtd"
    xmlns="http://www.w3.org/2000/svg"
    xmlns:svg="http://www.w3.org/2000/svg"
><defs id="defs23" /><sodipodi:namedview
        id="namedview21"
        pagecolor="#ffffff"
        bordercolor="#000000"
        borderopacity="0.25"
        showgrid="false"
    />
    <path
        d="m 498.962,102.751 c -0.018,-0.182 -0.049,-0.359 -0.08,-0.537 -0.011,-0.063 -0.016,-0.128 -0.029,-0.191 -0.042,-0.21 -0.096,-0.416 -0.156,-0.619 -0.009,-0.03 -0.014,-0.061 -0.023,-0.091 -0.063,-0.207 -0.138,-0.409 -0.218,-0.608 -0.011,-0.027 -0.019,-0.055 -0.03,-0.081 -0.078,-0.189 -0.168,-0.372 -0.261,-0.552 -0.019,-0.037 -0.034,-0.075 -0.054,-0.112 -0.09,-0.167 -0.189,-0.327 -0.291,-0.486 -0.031,-0.048 -0.057,-0.098 -0.088,-0.145 -0.101,-0.151 -0.212,-0.295 -0.324,-0.438 -0.039,-0.05 -0.073,-0.102 -0.113,-0.151 -0.156,-0.189 -0.32,-0.372 -0.493,-0.545 L 400.804,2.198 C 400.631,2.025 400.449,1.86 400.259,1.705 400.21,1.665 400.158,1.631 400.108,1.592 399.965,1.48 399.821,1.369 399.67,1.268 399.623,1.236 399.573,1.21 399.525,1.18 399.366,1.079 399.206,0.979 399.039,0.889 399.003,0.869 398.964,0.854 398.927,0.835 398.746,0.742 398.563,0.652 398.375,0.574 398.348,0.563 398.321,0.555 398.294,0.544 398.095,0.464 397.893,0.389 397.686,0.326 397.656,0.317 397.625,0.311 397.595,0.303 397.392,0.244 397.186,0.189 396.976,0.147 396.913,0.134 396.848,0.129 396.785,0.118 396.608,0.087 396.43,0.056 396.248,0.038 396.001,0.013 395.751,0 395.5,0 h -224 C 149.72,0 132,17.72 132,39.5 V 80 H 43.5 C 26.131,80 12,94.131 12,111.5 v 80 C 12,208.869 26.131,223 43.5,223 H 132 v 248.5 c 0,21.78 17.72,39.5 39.5,39.5 h 288 c 21.78,0 39.5,-17.72 39.5,-39.5 v -368 c 0,-0.251 -0.013,-0.501 -0.038,-0.749 z M 403,25.606 473.394,96 H 427.5 C 413.991,96 403,85.009 403,71.5 Z M 27,191.5 v -80 C 27,102.402 34.402,95 43.5,95 h 304 c 9.098,0 16.5,7.402 16.5,16.5 v 80 c 0,9.098 -7.402,16.5 -16.5,16.5 H 139.519 c -0.007,0 -0.013,-0.001 -0.019,-0.001 -0.006,0 -0.013,0.001 -0.019,0.001 H 43.5 C 34.402,208 27,200.598 27,191.5 Z M 459.5,496 h -288 C 157.991,496 147,485.009 147,471.5 V 223 h 200.5 c 17.369,0 31.5,-14.131 31.5,-31.5 v -80 C 379,94.131 364.869,80 347.5,80 H 147 V 39.5 C 147,25.991 157.991,15 171.5,15 H 388 v 56.5 c 0,21.78 17.72,39.5 39.5,39.5 H 484 v 360.5 c 0,13.509 -10.991,24.5 -24.5,24.5 z"
        id="path2"
        fill="var(--font-color-disabled)"
    /><path
        d="m 374.73575,414.03082 c -0.004,-4.14131 -1.82188,-7.4931 -4.05922,-7.48464 l -81.97916,0.30998 c -2.23684,0.008 -4.04693,3.37334 -4.04235,7.51591 7.6e-4,0.82946 0.0743,1.62672 0.20961,2.37282 0.53957,2.97683 2.06026,5.11827 3.84911,5.11214 l 81.97915,-0.30998 c 2.23771,-0.01 4.04727,-3.3746 4.04286,-7.51623 z"
        id="path12"
        fill="white"
    /><path
        d="m 216.96916,296.70753 c -2.929,-2.929 -7.678,-2.929 -10.606,0 -2.929,2.929 -2.929,7.678 0,10.606 l 50.697,50.697 -50.697,50.697 c -2.929,2.929 -2.929,7.678 0,10.606 1.464,1.464 3.384,2.197 5.303,2.197 1.919,0 3.839,-0.732 5.303,-2.197 l 56,-56 c 2.929,-2.929 2.929,-7.678 0,-10.606 z"
        id="path16"
        fill="white"
    />
    <g
        aria-label="SH"
        id="text245"
        style="font-weight:bold;font-size:110.417px;font-family:'Noto Sans';-inkscape-font-specification:'Noto Sans Bold';stroke-width:1.15016"
        ><path
            fill="var(--font-color-disabled)"
            d="m 177.29191,167.45947 q 0,10.48962 -7.61878,16.78338 -7.50835,6.18336 -21.42089,6.18336 -12.47712,0 -22.30424,-4.74793 v -15.5688 q 5.63127,2.42917 11.59379,4.5271 6.07293,1.9875 12.03545,1.9875 6.18335,0 8.72294,-2.31876 2.65001,-2.42917 2.65001,-6.07293 0,-2.98126 -2.09792,-5.07918 -1.98751,-2.09793 -5.41043,-3.8646 -3.42293,-1.87709 -7.83961,-3.97501 -2.76043,-1.325 -5.96252,-3.09168 -3.20209,-1.87708 -6.18335,-4.52709 -2.87084,-2.76043 -4.74793,-6.62502 -1.87709,-3.8646 -1.87709,-9.27503 0,-10.60003 7.1771,-16.45213 7.17711,-5.96252 19.54381,-5.96252 6.18335,0 11.7042,1.43542 5.63127,1.43542 11.70421,4.08543 l -5.41044,13.0292 q -5.41043,-2.20834 -9.71669,-3.42292 -4.30627,-1.21459 -8.83336,-1.21459 -4.74793,0 -7.28752,2.20834 -2.5396,2.20834 -2.5396,5.74168 0,4.19585 3.75418,6.62502 3.75418,2.42918 11.15212,5.96252 6.07293,2.87084 10.26878,5.96252 4.30626,3.09168 6.62502,7.28752 2.31876,4.19585 2.31876,10.3792 z"
            id="path276"
        /><path
            fill="var(--font-color-disabled)"
            d="M 256.23992,189.32204 H 239.56695 V 155.3136 h -31.24801 v 34.00844 H 191.64597 V 110.4843 h 16.67297 v 30.91676 h 31.24801 V 110.4843 h 16.67297 z"
            id="path278"
        /></g></svg>